<svg width="82" height="83" viewBox="0 0 82 83" fill="none" xmlns="http://www.w3.org/2000/svg">
<path d="M41 17.9375C45.9533 17.9375 49.9688 13.9221 49.9688 8.96875C49.9688 4.01545 45.9533 0 41 0C36.0467 0 32.0312 4.01545 32.0312 8.96875C32.0312 13.9221 36.0467 17.9375 41 17.9375Z" fill="#002A6F"/>
<path d="M69.9883 20.5H12.0117C10.8649 20.5 9.76498 20.9556 8.95403 21.7665C8.14309 22.5775 7.6875 23.6773 7.6875 24.8242C7.6875 25.9711 8.14309 27.0709 8.95403 27.8819C9.76498 28.6928 10.8649 29.1484 12.0117 29.1484H28.3284C29.4351 29.1484 30.7308 29.6433 31.4643 31.5508C32.3211 33.7657 31.9015 38.0435 31.373 41.3571L30.6811 45.273C30.6824 45.2831 30.6814 45.2935 30.678 45.3032C30.6747 45.3129 30.6692 45.3218 30.6619 45.329L25.1205 76.8494C24.9195 77.9935 25.18 79.1707 25.8448 80.1234C26.5096 81.0761 27.5247 81.7266 28.668 81.9327C29.2332 82.0327 29.8127 82.0194 30.3727 81.8936C30.9327 81.7678 31.4622 81.5319 31.9304 81.1998C32.3985 80.8677 32.796 80.4459 33.0998 79.9589C33.4036 79.4719 33.6077 78.9293 33.7001 78.3628L37.5294 56.4535C37.5294 56.4535 38.7578 51.25 41 51.25C43.279 51.25 44.4818 56.4535 44.4818 56.4535L48.3111 78.3821C48.4038 78.9536 48.6092 79.5009 48.9155 79.9922C49.2218 80.4835 49.6229 80.9089 50.0953 81.2436C50.5676 81.5784 51.1019 81.8157 51.667 81.9419C52.232 82.0681 52.8165 82.0805 53.3864 81.9784C53.9563 81.8764 54.5002 81.662 54.9864 81.3476C55.4726 81.0332 55.8913 80.6252 56.2183 80.1474C56.5452 79.6696 56.7737 79.1314 56.8905 78.5644C57.0073 77.9973 57.0101 77.4127 56.8987 76.8446L51.3557 45.3242C51.3569 45.3141 51.3559 45.304 51.3529 45.2943C51.3498 45.2846 51.3448 45.2757 51.3381 45.2681L50.6446 41.3523C50.1161 38.0387 49.6965 33.7609 50.5533 31.546C51.2836 29.6433 52.6209 29.1436 53.6411 29.1436H69.9883C71.1351 29.1436 72.235 28.688 73.046 27.8771C73.8569 27.0661 74.3125 25.9663 74.3125 24.8194C74.3125 23.6725 73.8569 22.5727 73.046 21.7617C72.235 20.9508 71.1351 20.4952 69.9883 20.4952V20.5Z" fill="#002A6F"/>
</svg>
