<svg width="62" height="62" viewBox="0 0 62 62" fill="none" xmlns="http://www.w3.org/2000/svg">
<path d="M31 6.25C27.7498 6.25 24.5314 6.89018 21.5286 8.13398C18.5258 9.37778 15.7974 11.2009 13.4991 13.4991C11.2009 15.7974 9.37779 18.5258 8.13398 21.5286C6.89018 24.5314 6.25 27.7498 6.25 31C6.25 34.2502 6.89018 37.4686 8.13398 40.4714C9.37779 43.4742 11.2009 46.2026 13.4991 48.5009C15.7974 50.7991 18.5258 52.6222 21.5286 53.866C24.5314 55.1098 27.7498 55.75 31 55.75C37.5641 55.75 43.8594 53.1424 48.5009 48.5009C53.1424 43.8594 55.75 37.5641 55.75 31C55.75 24.4359 53.1424 18.1406 48.5009 13.4991C43.8594 8.85758 37.5641 6.25 31 6.25ZM0.75 31C0.75 14.2938 14.2938 0.75 31 0.75C47.7062 0.75 61.25 14.2938 61.25 31C61.25 47.7062 47.7062 61.25 31 61.25C14.2938 61.25 0.75 47.7062 0.75 31ZM22.75 20V31H17.25V20H22.75ZM44.75 20V31H39.25V20H44.75ZM17.25 33.75H44.75V36.5C44.75 40.1467 43.3013 43.6441 40.7227 46.2227C38.1441 48.8013 34.6467 50.25 31 50.25C27.3533 50.25 23.8559 48.8013 21.2773 46.2227C18.6987 43.6441 17.25 40.1467 17.25 36.5V33.75ZM23.2175 39.25C23.7857 40.8602 24.8393 42.2546 26.2331 43.2408C27.627 44.2271 29.2925 44.7567 31 44.7567C32.7075 44.7567 34.373 44.2271 35.7668 43.2408C37.1607 42.2546 38.2143 40.8602 38.7825 39.25H23.2175Z" fill="#002A6F"/>
</svg>
