<svg width="57" height="59" viewBox="0 0 57 59" fill="none" xmlns="http://www.w3.org/2000/svg">
<path fill-rule="evenodd" clip-rule="evenodd" d="M0.583336 15.8648C0.583336 11.9047 2.23777 8.10683 5.18267 5.30665C8.12758 2.50646 12.1217 0.933334 16.2865 0.933334H51.1823C52.5705 0.933334 53.9019 1.45771 54.8836 2.39111C55.8652 3.3245 56.4167 4.59046 56.4167 5.91048V55.6819C56.4167 56.5619 56.049 57.4059 55.3946 58.0282C54.7402 58.6504 53.8526 59 52.9271 59H12.7969C9.8594 59.0007 7.02006 57.9948 4.79929 56.1665C2.57852 54.3382 1.12511 51.8102 0.705471 49.0457H0.583336V15.8648ZM51.1823 40.7505H12.7969C10.9459 40.7505 9.17071 41.4496 7.86186 42.6942C6.55301 43.9387 5.81771 45.6266 5.81771 47.3867C5.81771 49.1467 6.55301 50.8346 7.86186 52.0792C9.17071 53.3237 10.9459 54.0229 12.7969 54.0229H51.1823V40.7505ZM15.4141 15.8648C15.4141 15.2048 15.6898 14.5718 16.1806 14.1051C16.6714 13.6384 17.3371 13.3762 18.0313 13.3762H42.4583C43.1525 13.3762 43.8181 13.6384 44.309 14.1051C44.7998 14.5718 45.0755 15.2048 45.0755 15.8648C45.0755 16.5248 44.7998 17.1577 44.309 17.6244C43.8181 18.0911 43.1525 18.3533 42.4583 18.3533H18.0313C17.3371 18.3533 16.6714 18.0911 16.1806 17.6244C15.6898 17.1577 15.4141 16.5248 15.4141 15.8648ZM18.0313 23.3305C17.3371 23.3305 16.6714 23.5927 16.1806 24.0594C15.6898 24.5261 15.4141 25.159 15.4141 25.819C15.4141 26.4791 15.6898 27.112 16.1806 27.5787C16.6714 28.0454 17.3371 28.3076 18.0313 28.3076H35.4792C36.1733 28.3076 36.839 28.0454 37.3298 27.5787C37.8206 27.112 38.0964 26.4791 38.0964 25.819C38.0964 25.159 37.8206 24.5261 37.3298 24.0594C36.839 23.5927 36.1733 23.3305 35.4792 23.3305H18.0313Z" fill="#002A6F"/>
</svg>
