<svg width="63" height="54" viewBox="0 0 63 54" fill="none" xmlns="http://www.w3.org/2000/svg">
<path d="M44.1 9.74999H50.4V53.85H12.6V9.74999H18.9V6.59999C18.9 4.92912 19.5637 3.32669 20.7452 2.14521C21.9267 0.963736 23.5291 0.299988 25.2 0.299988H37.8C39.4709 0.299988 41.0733 0.963736 42.2548 2.14521C43.4363 3.32669 44.1 4.92912 44.1 6.59999V9.74999ZM53.55 9.74999H56.7C58.3709 9.74999 59.9733 10.4137 61.1548 11.5952C62.3363 12.7767 63 14.3791 63 16.05V47.55C63 49.2209 62.3363 50.8233 61.1548 52.0048C59.9733 53.1862 58.3709 53.85 56.7 53.85H53.55V9.74999ZM9.45 9.74999V53.85H6.3C4.62914 53.85 3.02671 53.1862 1.84523 52.0048C0.663748 50.8233 0 49.2209 0 47.55V16.05C0 12.585 2.835 9.74999 6.3 9.74999H9.45ZM25.2 6.59999V9.74999H37.8V6.59999H25.2Z" fill="#002A6F"/>
</svg>
